<svg xmlns="http://www.w3.org/2000/svg" viewBox="0 0 3350.01 3647.01"><defs><style>.cls-1{fill:#1e419b;fill-rule:evenodd;}</style></defs><title>a</title><g id="Layer_2" data-name="Layer 2"><g id="BBVA_By_Geduard"><path class="cls-1" d="M1108.6,0h590.58c8.94,7.2,19.46,3.8,29.25,3.9,52.74.54,105.51-1,158.2,2.49,39.53,2.64,78.76,7.43,116.94,18.51,54.37,15.79,98.93,45.83,132.75,91.56a437.94,437.94,0,0,1,36.73,59.46,777.69,777.69,0,0,1,43.42,100.41q41.15,117.66,81,235.77,233.61,691.23,467,1382.55,239.71,710,479.32,1420.09,48.61,144,97.19,288c4.78,14.25,11.41,28.39,8.21,44.23H2368.92c-1.39-5.88-2.45-11.85-4.21-17.61q-113.34-370.66-226.81-741.29c-1.78-5.81-4-11.5-5.51-17.38-1.82-7.2-6.72-9.47-13.4-9.52-5.07,0-10.14-.09-15.22-.09q-636.08,0-1272.16,0c-28.69,0-25.1-3.24-34.22,26.72q-40.74,133.77-81.54,267.52Q641.21,3401.18,566.73,3647H.5c-2.44-13.82,4.6-25.77,8.37-38.1q221-723.59,442.61-1447Q717.82,1291.7,984.13,421.51q60-196.12,119.71-392.34C1106.73,19.69,1112.35,10.59,1108.6,0Zm853.49,2323.85c1.2-14.3-5.31-27.38-9.35-40.69q-218.24-719.84-436.92-1439.54-23.84-78.52-48-156.94c-1.06-3.46-1.15-9.05-6.92-7.67-2,.49-3.93,4-4.79,6.56-2.61,7.66-4.63,15.52-7,23.29q-95.91,320.26-191.83,640.52-141.56,473.15-283.08,946.31c-10.18,34-8.89,31.2,23,31.21q468.56,0,937.12-.07C1943.3,2326.82,1952.6,2328.63,1962.09,2323.85Z"/></g></g></svg>