<svg xmlns="http://www.w3.org/2000/svg" viewBox="0 0 2805.47 3664"><defs><style>.cls-1{fill:#1e419b;fill-rule:evenodd;}</style></defs><g id="Layer_2" data-name="Layer 2"><g id="BBVA_By_Geduard"><path class="cls-1" d="M1626.72,3664H0V0H1645.07c11.68,9,25.2,5.4,38.17,5.6,5.06-.1,10.16-.58,15.19-.22a1053.22,1053.22,0,0,1,139.16,19.21c91.42,18.83,178.79,48.88,259,97.28,186.12,112.29,288.46,277,305.34,493.78,6.54,84.06-4.61,166.75-26.42,248.07-29.06,108.33-77.2,207.89-139.09,301-54.71,82.32-110,164.21-165.1,246.29-3.4,5.08-6.89,10.11-10.15,15.28-7.16,11.37-6.91,12.79,3.6,18.91,6.16,3.59,12.47,6.91,18.74,10.31A1685,1685,0,0,1,2252.35,1560c137,96.65,256.56,211,351,350,148,218,218.74,457.66,198.83,722.13-8,106.46-31.41,209.46-71.38,308.31C2622.36,3208.71,2434,3402.22,2176,3529.7c-127.13,62.84-262,100.88-402.09,120.86-23.07,3.29-46.11,9-69.79,6.72-17.16.21-34.32.45-51.48.6C1643.54,3658,1634.4,3657.85,1626.72,3664ZM1364.79,1611.71c6.07-9.35,11.5-17.93,17.14-26.36q144.45-215.92,289-431.79c20.45-30.52,39.49-61.83,54.47-95.41,48.4-108.46,48.52-217.45.38-325.67-69-155.19-230.44-251.43-386-250.53-145.73.86-291.47.15-437.2.2-38,0-33.77-2.92-33.79,35q-.14,356.18,0,712.37,0,952.37,0,1904.74c0,10.19.1,20.37.46,30.55.21,5.94,3.91,9.18,9.67,9.45,8.14.38,16.29.39,24.44.4,67.26,0,134.52-.09,201.79,0,43.83.09,87.55-.89,131.26-5.2,76.43-7.52,151-23,222.83-50.21,174-66,297.52-184.66,368.83-356.85,35.39-85.44,53.67-175,61.68-266.81a1257.61,1257.61,0,0,0,.8-207.6c-6.69-85.73-21.67-169.7-50.55-250.8-50.57-142-136.56-256.22-266-335.71-58.56-35.95-121.66-61.45-187.75-79.77C1379.37,1619.84,1371.89,1619.82,1364.79,1611.71Z"/></g></g></svg>