<svg xmlns="http://www.w3.org/2000/svg" viewBox="0 0 3169.27 3626.96"><defs><style>.cls-1{fill:#1e419b;fill-rule:evenodd;}</style></defs><title>V</title><g id="Layer_2" data-name="Layer 2"><g id="BBVA_By_Geduard"><path class="cls-1" d="M2597.06,0h571.55c2.94,14.83-4.74,27.58-8.78,40.8q-232.45,760.85-465.41,1521.54L2119.06,3442.48c-16.23,53-32.68,106-48.46,159.15-2.36,8-8.91,16.22-2.53,25.33H1186.43c-2.65-9.68-4.88-19.5-8-29Q917.18,2802,655.8,2006,421.4,1292,187.06,577.92,97,303.49,6.92,29.06C3.85,19.68-2.12,10.71.77,0H687.84c41.18,4.51,82.35,9.13,122,22.14C850.17,35.42,884.17,58.35,912.35,90A383.54,383.54,0,0,1,955,148.79c16.59,27.78,30.68,56.81,43.57,86.46,28.2,64.84,51.84,131.38,72.74,198.81q60,193.61,118.29,387.73,189.73,626.87,379.18,1253.83,97.61,322.87,195.13,645.78c2.38,7.88,5.65,15.48,10.11,27.54,4.16-12.34,6.93-19.82,9.21-27.44q133.29-444.82,266.49-889.67,233.37-779.59,466.62-1559.2C2543.48,181.82,2570.16,90.88,2597.06,0Z"/></g></g></svg>